<svg xmlns="http://www.w3.org/2000/svg" width="158.83" height="47.061" viewBox="0 0 158.83 47.061">
  <g id="download-on-the-app-store-apple-logo-svgrepo-com" transform="translate(0 0.307)">
    <path id="Path_8707" data-name="Path 8707" d="M150.087,41.385a4.214,4.214,0,0,1-4.219,4.214H7.787a4.22,4.22,0,0,1-4.225-4.214V7.78A4.225,4.225,0,0,1,7.787,3.561h138.08a4.219,4.219,0,0,1,4.219,4.219v33.6Z" transform="translate(-2.582 -2.582)" fill="#fff"/>
    <path id="Path_8708" data-name="Path 8708" d="M153.264,47.061H5.567A5.567,5.567,0,0,1,0,41.506V5.562A5.571,5.571,0,0,1,5.567,0h147.7a5.573,5.573,0,0,1,5.567,5.562V41.505a5.566,5.566,0,0,1-5.566,5.556Z" transform="translate(0 -0.307)" fill="#f2881e"/>
    <path id="Path_8709" data-name="Path 8709" d="M160.322,44.027a4.509,4.509,0,0,1-4.514,4.508H8.082a4.515,4.515,0,0,1-4.52-4.508V8.075a4.521,4.521,0,0,1,4.52-4.514H155.807a4.514,4.514,0,0,1,4.514,4.514V44.027Z" transform="translate(-2.562 -2.85)" fill="#ebf1ff"/>
    <g id="Group_4503" data-name="Group 4503" transform="translate(7.922 2.87)">
      <path id="Path_8710" data-name="Path 8710" d="M70.274,39.8a6.378,6.378,0,0,1,3.039-5.352,6.535,6.535,0,0,0-5.146-2.781C66,31.441,63.9,32.964,62.8,32.964c-1.125,0-2.823-1.273-4.653-1.236a6.851,6.851,0,0,0-5.767,3.516c-2.494,4.316-.634,10.659,1.755,14.148,1.2,1.71,2.592,3.616,4.42,3.549,1.788-.073,2.456-1.139,4.614-1.139,2.138,0,2.766,1.139,4.63,1.1,1.919-.03,3.128-1.716,4.281-3.44a14.1,14.1,0,0,0,1.958-3.986A6.171,6.171,0,0,1,70.274,39.8ZM66.752,29.374a6.277,6.277,0,0,0,1.437-4.5,6.4,6.4,0,0,0-4.136,2.139,5.973,5.973,0,0,0-1.475,4.333A5.284,5.284,0,0,0,66.752,29.374Z" transform="translate(-37.117 -19.035)" fill="#212c4c"/>
      <g id="Group_4502" data-name="Group 4502" transform="translate(46.695 12.71)">
        <path id="Path_8712" data-name="Path 8712" d="M181.362,85.9h-2.335l-1.279-4.018H173.3L172.085,85.9h-2.273l4.405-13.678h2.72Zm-4-5.7-1.157-3.572q-.184-.547-.69-2.577h-.041q-.2.873-.65,2.577l-1.137,3.572Zm15.306.651A5.584,5.584,0,0,1,191.3,84.82a4.01,4.01,0,0,1-3.041,1.3,3.044,3.044,0,0,1-2.817-1.4V89.9h-2.192V79.275q0-1.58-.081-3.242H185.1l.122,1.563h.041a3.9,3.9,0,0,1,6.242-.387A5.453,5.453,0,0,1,192.669,80.844Zm-2.233.08a4.065,4.065,0,0,0-.65-2.375,2.246,2.246,0,0,0-1.908-.973,2.28,2.28,0,0,0-1.471.538,2.493,2.493,0,0,0-.863,1.411,2.861,2.861,0,0,0-.1.667v1.646a2.638,2.638,0,0,0,.66,1.817,2.191,2.191,0,0,0,1.715.741,2.247,2.247,0,0,0,1.928-.954A4.2,4.2,0,0,0,190.436,80.924Zm13.58-.08a5.584,5.584,0,0,1-1.367,3.977,4.012,4.012,0,0,1-3.042,1.3,3.044,3.044,0,0,1-2.817-1.4V89.9H194.6V79.275q0-1.58-.081-3.242h1.928l.122,1.563h.041a3.9,3.9,0,0,1,6.243-.387,5.458,5.458,0,0,1,1.166,3.634Zm-2.234.08a4.066,4.066,0,0,0-.651-2.375,2.242,2.242,0,0,0-1.906-.973,2.289,2.289,0,0,0-1.473.538,2.492,2.492,0,0,0-.862,1.411,2.928,2.928,0,0,0-.1.667v1.646a2.647,2.647,0,0,0,.659,1.817,2.2,2.2,0,0,0,1.717.741,2.244,2.244,0,0,0,1.928-.954A4.2,4.2,0,0,0,201.782,80.924ZM216.7,82.06a3.653,3.653,0,0,1-1.216,2.842,5.392,5.392,0,0,1-3.727,1.2,6.507,6.507,0,0,1-3.543-.852l.507-1.826a6.1,6.1,0,0,0,3.167.853,2.988,2.988,0,0,0,1.928-.558,1.823,1.823,0,0,0,.692-1.49,1.91,1.91,0,0,0-.57-1.4,5.281,5.281,0,0,0-1.888-1.055q-3.593-1.34-3.594-3.918a3.459,3.459,0,0,1,1.269-2.76,5.017,5.017,0,0,1,3.36-1.076,6.641,6.641,0,0,1,3.106.65l-.55,1.786a5.432,5.432,0,0,0-2.629-.629,2.674,2.674,0,0,0-1.814.568,1.626,1.626,0,0,0-.55,1.24,1.675,1.675,0,0,0,.63,1.339,7.1,7.1,0,0,0,1.988,1.055,6.741,6.741,0,0,1,2.6,1.663,3.466,3.466,0,0,1,.836,2.372Zm7.266-4.382h-2.416v4.789q0,1.827,1.279,1.825a3.852,3.852,0,0,0,.974-.1l.061,1.664a4.967,4.967,0,0,1-1.7.243,2.627,2.627,0,0,1-2.03-.792,3.885,3.885,0,0,1-.731-2.659V77.674H217.96V76.029H219.4V74.224l2.153-.65v2.455h2.416v1.649Zm10.879,3.206a5.41,5.41,0,0,1-1.3,3.734,4.633,4.633,0,0,1-3.613,1.5,4.416,4.416,0,0,1-3.462-1.439,5.246,5.246,0,0,1-1.289-3.632,5.366,5.366,0,0,1,1.329-3.754,4.609,4.609,0,0,1,3.584-1.462,4.509,4.509,0,0,1,3.49,1.441A5.177,5.177,0,0,1,234.848,80.884Zm-2.272.05a4.415,4.415,0,0,0-.587-2.327,2.17,2.17,0,0,0-1.97-1.175,2.2,2.2,0,0,0-2.01,1.175,4.488,4.488,0,0,0-.588,2.368,4.4,4.4,0,0,0,.588,2.328,2.248,2.248,0,0,0,3.961-.02,4.433,4.433,0,0,0,.606-2.35Zm9.4-2.973a3.815,3.815,0,0,0-.691-.061,2.069,2.069,0,0,0-1.787.874,3.29,3.29,0,0,0-.547,1.948V85.9h-2.192V79.14q0-1.553-.064-3.105H238.6l.08,1.887h.061a3.383,3.383,0,0,1,1.1-1.563,2.651,2.651,0,0,1,1.584-.528,3.519,3.519,0,0,1,.548.04l0,2.091Zm9.8,2.538a5.139,5.139,0,0,1-.08.994h-6.576a2.86,2.86,0,0,0,.954,2.234,3.263,3.263,0,0,0,2.151.689,7.275,7.275,0,0,0,2.661-.466l.343,1.52a8.228,8.228,0,0,1-3.307.609,4.8,4.8,0,0,1-3.6-1.348,4.985,4.985,0,0,1-1.309-3.622A5.649,5.649,0,0,1,244.23,77.4a4.2,4.2,0,0,1,3.449-1.582,3.677,3.677,0,0,1,3.229,1.582A5.322,5.322,0,0,1,251.779,80.5Zm-2.09-.568a2.966,2.966,0,0,0-.426-1.685,1.914,1.914,0,0,0-1.746-.915,2.078,2.078,0,0,0-1.745.893,3.273,3.273,0,0,0-.649,1.7l4.565,0Z" transform="translate(-169.812 -72.016)" fill="#212c4c"/>
      </g>
    </g>
  </g>
</svg>
