<svg xmlns="http://www.w3.org/2000/svg" width="157.143" height="50.038" viewBox="0 0 157.143 50.038">
  <g id="Google_Play-Badge-Logo.wine" transform="translate(8 4.236)">
    <rect id="Rectangle_148323" data-name="Rectangle 148323" width="156.762" height="49.529" transform="translate(-8 -4.236)" fill="#ebf1ff"/>
    <path id="Path_8698" data-name="Path 8698" d="M150.958,0H5.806A6.022,6.022,0,0,0,0,6.185V43.3a6.022,6.022,0,0,0,5.806,6.185H150.958a6.022,6.022,0,0,0,5.806-6.185V6.185A6.022,6.022,0,0,0,150.958,0m0,.99a5.05,5.05,0,0,1,4.877,5.2V43.3a5.05,5.05,0,0,1-4.877,5.2H5.806A5.05,5.05,0,0,1,.929,43.3V6.185A5.05,5.05,0,0,1,5.806.99H150.958" transform="translate(-7.621 -3.68)" fill="#f2881e"/>
    <g id="Group_4504" data-name="Group 4504" transform="translate(-1.018 0.154)">
      <path id="Path_8706" data-name="Path 8706" d="M980.814,177.785h1.956V164.659h-1.956Zm17.619-8.4-2.242,5.691h-.067l-2.327-5.691h-2.107l3.49,7.954-1.99,4.424h2.041l5.378-12.378Zm-11.093,6.907c-.641,0-1.535-.321-1.535-1.115,0-1.013,1.113-1.4,2.073-1.4a3.477,3.477,0,0,1,1.787.439A2.373,2.373,0,0,1,987.339,176.294Zm.236-7.194a3.671,3.671,0,0,0-3.49,2.01l1.736.726a1.853,1.853,0,0,1,1.787-.963,1.884,1.884,0,0,1,2.057,1.689v.135a4.32,4.32,0,0,0-2.04-.507c-1.871,0-3.777,1.03-3.777,2.955a3.03,3.03,0,0,0,3.254,2.888,2.76,2.76,0,0,0,2.5-1.283h.067v1.013h1.888v-5.033c0-2.33-1.736-3.631-3.978-3.631Zm-12.089,1.885H972.7v-4.5h2.782a2.25,2.25,0,1,1,0,4.5Zm-.05-6.326h-4.687v13.126H972.7v-4.973h2.732a4.082,4.082,0,1,0,0-8.153ZM949.877,176.3a2.717,2.717,0,0,1,0-5.413,2.729,2.729,0,0,1,0,5.413Zm2.246-6.174h-.068a3.088,3.088,0,0,0-2.348-1,4.47,4.47,0,0,0,0,8.932,3.039,3.039,0,0,0,2.348-1.015h.068v.643c0,1.709-.912,2.622-2.381,2.622a2.469,2.469,0,0,1-2.247-1.59l-1.705.71a4.249,4.249,0,0,0,3.952,2.639c2.3,0,4.239-1.354,4.239-4.652v-8.018h-1.858Zm3.209,7.663h1.959V164.658h-1.959Zm4.847-4.33a2.447,2.447,0,0,1,2.33-2.6,1.724,1.724,0,0,1,1.655.948Zm6.08-1.488a4.145,4.145,0,0,0-3.817-2.842,4.241,4.241,0,0,0-4.205,4.466,4.367,4.367,0,0,0,4.425,4.466,4.434,4.434,0,0,0,3.716-1.979l-1.52-1.015a2.545,2.545,0,0,1-2.2,1.235,2.268,2.268,0,0,1-2.162-1.353l5.961-2.47Zm-47.5-1.472v1.895h4.526a3.956,3.956,0,0,1-1.03,2.385,4.628,4.628,0,0,1-3.5,1.387,5.042,5.042,0,0,1,0-10.082,4.82,4.82,0,0,1,3.411,1.353l1.334-1.336a6.592,6.592,0,0,0-4.746-1.912,6.936,6.936,0,1,0,0,13.871,6.133,6.133,0,0,0,6.468-6.377,6.162,6.162,0,0,0-.1-1.184Zm11.614,5.8a2.714,2.714,0,1,1,2.516-2.707A2.582,2.582,0,0,1,930.376,176.3Zm0-7.172a4.466,4.466,0,1,0,4.475,4.466A4.4,4.4,0,0,0,930.376,169.124Zm9.763,7.172a2.714,2.714,0,1,1,2.516-2.707,2.582,2.582,0,0,1-2.516,2.707Zm0-7.172a4.466,4.466,0,1,0,4.476,4.466,4.4,4.4,0,0,0-4.476-4.466Z" transform="translate(-868.712 -152.144)" fill="#212c4c"/>
      <g id="Play_Store_Logo" data-name="Play Store Logo" transform="translate(-61.982 -150.391)">
        <g id="google-play-5" transform="translate(73 156)">
          <path id="Path_1221" data-name="Path 1221" d="M16.5,8.971.946.081a.626.626,0,0,0-.63.006A.623.623,0,0,0,0,.629s.006.82.013,2.169L11.342,14.128Z" transform="translate(0 0.001)" fill="#212c4c"/>
          <path id="Path_1222" data-name="Path 1222" d="M.2,44.4c.019,4.867.076,16.682.1,22.564L11.536,55.729Z" transform="translate(-0.187 -41.601)" fill="#212c4c"/>
          <path id="Path_1223" data-name="Path 1223" d="M193.866,147.388l-8.9-5.088-5.163,5.157,5.825,5.826,8.246-4.8a.63.63,0,0,0,.315-.542A.639.639,0,0,0,193.866,147.388Z" transform="translate(-168.464 -133.328)" fill="#212c4c"/>
          <path id="Path_1224" data-name="Path 1224" d="M1.7,235.429c.013,2.1.019,3.442.019,3.442a.615.615,0,0,0,.315.542.626.626,0,0,0,.63,0l16.1-9.388L12.935,224.2Z" transform="translate(-1.593 -210.065)" fill="#212c4c"/>
        </g>
        <path id="Path_6387" data-name="Path 6387" d="M-2191,10184.148l17.319,17.256" transform="translate(2264 -10025.436)" fill="none" stroke="#fff" stroke-width="0.5"/>
        <path id="Path_6388" data-name="Path 6388" d="M-2174.5,10193.7l-16.442,16.628" transform="translate(2263.982 -10028.738)" fill="none" stroke="#fff" stroke-width="0.5"/>
      </g>
    </g>
  </g>
</svg>
